<svg xmlns="http://www.w3.org/2000/svg" width="32" height="40" viewBox="0 0 32 40">
  <g id="Group_11" data-name="Group 11" transform="translate(-4 0)">
    <g id="Group_10" data-name="Group 10">
      <path id="Path_2" data-name="Path 2" d="M-553-128a1,1,0,0,1-1-1v-3a1,1,0,0,1,1-1h7.781l.867-2c.418-.8.8-1,1.352-1h11a1.276,1.276,0,0,1,1.282,1l.627,2H-523a1,1,0,0,1,1,1v3a1,1,0,0,1-1,1Z" transform="translate(558 136)" fill="#a8a8a8"/>
      <path id="Rectangle_11" data-name="Rectangle 11" d="M0,0H28a0,0,0,0,1,0,0V28a2,2,0,0,1-2,2H2a2,2,0,0,1-2-2V0A0,0,0,0,1,0,0Z" transform="translate(6 10)" fill="#a8a8a8"/>
      <rect id="Rectangle_10" data-name="Rectangle 10" width="2" height="20" rx="1" transform="translate(12 16)" fill="#fff"/>
      <rect id="Rectangle_12" data-name="Rectangle 12" width="2" height="20" rx="1" transform="translate(19 16)" fill="#fff"/>
      <rect id="Rectangle_13" data-name="Rectangle 13" width="2" height="20" rx="1" transform="translate(26 16)" fill="#fff"/>
    </g>
  </g>
</svg>
