<svg id="Group_20" data-name="Group 20" xmlns="http://www.w3.org/2000/svg" width="40" height="40" viewBox="0 0 40 40">
  <circle id="Ellipse_1" data-name="Ellipse 1" cx="20" cy="20" r="20" fill="#ffba00"/>
  <path id="Subtraction_1" data-name="Subtraction 1" d="M-499.019-394.974a13.678,13.678,0,0,1-4.428-.795,15.981,15.981,0,0,1-2.889-1.477l2.5-3.178a8.482,8.482,0,0,0,4.719,1.42h.1a9.016,9.016,0,0,0,6.492-2.725A8.829,8.829,0,0,0-490.02-408a8.757,8.757,0,0,0-2.917-6.63A9.071,9.071,0,0,0-499-417.005h-.016a9.918,9.918,0,0,0-4.54,1.227,13.014,13.014,0,0,0-3.069,2.983l-3.434-2.154,0-.006a12.74,12.74,0,0,1,2.654-3.013,13.122,13.122,0,0,1,3.437-2.088,13.21,13.21,0,0,1,4.947-.975h.105a12.549,12.549,0,0,1,9.266,4.025A13.463,13.463,0,0,1-486.04-408a13.123,13.123,0,0,1-3.839,9.242A12.8,12.8,0,0,1-499.019-394.974Z" transform="translate(519 428)" fill="#fff"/>
  <path id="Polygon_5" data-name="Polygon 5" d="M5.5,0,11,10H0Z" transform="translate(9.854 22.425) rotate(-135)" fill="#fff"/>
</svg>
