<svg id="Group_4" data-name="Group 4" xmlns="http://www.w3.org/2000/svg" width="40" height="40" viewBox="0 0 40 40">
  <circle id="Ellipse_1" data-name="Ellipse 1" cx="20" cy="20" r="20" fill="#6daa10"/>
  <path id="Union_1" data-name="Union 1" d="M-543.654-157.939l-.128-.115a1,1,0,0,1-.187-.133l-9.288-8.363a1,1,0,0,1-.074-1.412l1.739-1.931a1,1,0,0,1,1.413-.074l6.91,6.223,13.967-15.512a1,1,0,0,1,1.412-.075l1.931,1.74a1,1,0,0,1,.074,1.412l-16.357,18.167a1,1,0,0,1-.744.331A1,1,0,0,1-543.654-157.939Z" transform="translate(559.283 188.962)" fill="#fff"/>
</svg>
